<?xml version="1.0" encoding="iso-8859-1"?>
<!-- Generator: Adobe Illustrator 19.0.0, SVG Export Plug-In . SVG Version: 6.00 Build 0)  -->
<svg version="1.1" id="Capa_1" xmlns="http://www.w3.org/2000/svg" xmlns:xlink="http://www.w3.org/1999/xlink" x="0px" y="0px"
	 viewBox="0 0 512 512" style="enable-background:new 0 0 512 512;" xml:space="preserve">
<path style="fill:#4DBBEB;" d="M476.797,273.46l-56.133-83.45c-1.501-57.032-27.615-110.465-72.043-146.785
	C313.501,14.709,270.276,0,225.55,0c-13.809,0-27.916,1.2-41.724,4.201C109.683,19.51,49.647,79.846,34.639,153.99
	c-13.809,67.54,6.903,134.779,55.833,181.606v161.395c0,8.404,6.603,15.009,15.009,15.009h210.123
	c8.406,0,15.009-6.605,15.009-15.009v-76.045h52.231c21.012,0,37.822-16.81,37.822-37.822v-53.231h23.115
	C470.793,329.893,491.205,301.977,476.797,273.46z"/>
<path style="fill:#159CE4;" d="M443.778,329.893h-23.115v53.231c0,21.012-16.81,37.822-37.822,37.822h-52.231v76.045
	c0,8.404-6.603,15.009-15.009,15.009h-90.053V0c44.726,0,87.952,14.709,123.071,43.225c44.427,36.32,70.542,89.753,72.043,146.785
	l56.133,83.45C491.205,301.977,470.793,329.893,443.778,329.893z"/>
<path style="fill:#E6EEFF;" d="M285.586,269.858v15.009c0,24.914-20.111,45.026-45.026,45.026h-30.018
	c-24.916,0-45.026-20.113-45.026-45.026v-15.009l15.009-30.018h90.053L285.586,269.858z"/>
<path style="fill:#C5C9F7;" d="M285.586,269.858v15.009c0,24.914-20.111,45.026-45.026,45.026H225.55v-90.053h45.026
	L285.586,269.858z"/>
<path style="fill:#FEDB41;" d="M227.351,59.735h-1.801c-50.128-0.3-90.053,39.922-90.053,90.053
	c0,18.911,6.004,37.222,17.411,52.831c8.404,11.407,12.606,22.811,12.606,33.92v33.32h120.07v-33.32
	c0-10.807,4.504-22.513,12.908-34.22c11.107-15.61,17.11-33.62,17.11-52.531C315.603,99.958,275.679,60.635,227.351,59.735z"/>
<g>
	<path style="fill:#FCBF29;" d="M315.603,149.788c0,18.911-6.004,36.921-17.11,52.531c-8.404,11.707-12.908,23.413-12.908,34.22
		v33.32H225.55V59.735h1.801C275.679,60.635,315.603,99.958,315.603,149.788z"/>
	<path style="fill:#FCBF29;" d="M225.55,119.77c-16.51,0-30.018,13.508-30.018,30.018s13.508,30.018,30.018,30.018
		s30.018-13.508,30.018-30.018S242.059,119.77,225.55,119.77z"/>
</g>
<path style="fill:#FE9923;" d="M255.568,149.788c0,16.51-13.508,30.018-30.018,30.018V119.77
	C242.059,119.77,255.568,133.278,255.568,149.788z"/>
<rect x="210.544" y="149.788" style="fill:#FCBF29;" width="30.018" height="120.07"/>
<rect x="225.552" y="149.788" style="fill:#FE9923;" width="15.009" height="120.07"/>
<g>
</g>
<g>
</g>
<g>
</g>
<g>
</g>
<g>
</g>
<g>
</g>
<g>
</g>
<g>
</g>
<g>
</g>
<g>
</g>
<g>
</g>
<g>
</g>
<g>
</g>
<g>
</g>
<g>
</g>
</svg>
